<?xml version="1.0" standalone="no"?>
<!DOCTYPE svg PUBLIC "-//W3C//DTD SVG 20010904//EN"
 "http://www.w3.org/TR/2001/REC-SVG-20010904/DTD/svg10.dtd">
<svg version="1.0" xmlns="http://www.w3.org/2000/svg"
 width="32.000000pt" height="32.000000pt" viewBox="0 0 32.000000 32.000000"
 preserveAspectRatio="xMidYMid meet">

<g transform="translate(0.000000,32.000000) scale(0.100000,-0.100000)"
fill="#000000" stroke="none">
<path d="M93 268 c-4 -7 -9 -22 -10 -33 -1 -11 -5 -34 -9 -51 -3 -18 -1 -41 5
-52 8 -15 8 -28 -1 -47 -9 -19 -9 -28 0 -37 7 -7 12 -21 13 -33 0 -12 3 -15 6
-6 3 7 14 22 24 32 11 11 19 29 19 41 -1 22 -2 21 -16 -4 -8 -16 -21 -28 -29
-28 -18 0 -19 14 -4 41 7 14 7 29 -2 53 -10 29 -10 38 4 59 12 18 13 27 4 36
-18 18 8 38 28 21 8 -7 13 -15 10 -18 -3 -3 13 -14 35 -24 36 -17 39 -20 27
-39 -10 -17 -9 -22 7 -34 17 -13 18 -15 2 -21 -9 -3 -27 -4 -41 -2 -13 3 -22
1 -19 -3 3 -5 14 -9 24 -9 12 0 22 -9 26 -24 7 -31 -1 -46 -26 -46 -11 0 -24
-8 -29 -18 -8 -15 -5 -18 22 -20 27 -2 35 3 51 32 13 25 15 39 8 53 -7 13 -6
24 4 38 20 27 18 49 -11 105 -27 54 -35 59 -55 35 -12 -14 -15 -14 -30 0 -20
18 -26 19 -37 3z"/>
<path d="M134 175 c-4 -9 -2 -21 4 -27 15 -15 44 -1 40 19 -4 23 -36 29 -44 8z
m36 -5 c0 -5 -4 -10 -10 -10 -5 0 -10 5 -10 10 0 6 5 10 10 10 6 0 10 -4 10
-10z"/>
</g>
</svg>
